<svg xml:space="preserve" style="max-height: 500px" viewBox="0 0 102.49999999999999 105.5" y="0px" x="0px" version="1.1" xmlns:xlink="http://www.w3.org/1999/xlink" xmlns="http://www.w3.org/2000/svg" width="102.49999999999999" height="105.5"><g><path d="M48.304,23.559C36.212,24.392,26.62,34.155,25.993,46.268c-0.355,6.863,2.241,13.563,7.123,18.38   c0.497,0.491,0.771,1.097,0.771,1.714c0,5.66,4.604,10.266,10.265,10.266h11.697c5.66,0,10.265-4.605,10.265-10.277   c0-0.608,0.265-1.205,0.746-1.678c4.63-4.555,7.181-10.64,7.181-17.133C74.04,33.723,62.329,22.584,48.304,23.559z M61.248,58.97   c-2.021,1.989-3.134,4.61-3.134,7.392c0,1.249-1.016,2.266-2.265,2.266H44.151c-1.249,0-2.265-1.017-2.265-2.274   c0-2.766-1.119-5.394-3.152-7.398c-3.257-3.215-4.99-7.688-4.752-12.272c0.411-7.944,6.944-14.596,14.872-15.143   C49.239,31.513,49.621,31.5,50,31.5c8.844,0,16.039,7.195,16.039,16.039C66.04,51.871,64.338,55.93,61.248,58.97z"/><path d="M58.461,77.808H41.539c-2.209,0-4,1.791-4,4s1.791,4,4,4h16.922c2.209,0,4-1.791,4-4S60.67,77.808,58.461,77.808z"/><path d="M53.149,87h-6.298c-2.209,0-4,1.791-4,4s1.791,4,4,4h6.298c2.209,0,4-1.791,4-4S55.358,87,53.149,87z"/><path d="M21.711,47.905c0-2.209-1.791-4-4-4h-6.617c-2.209,0-4,1.791-4,4s1.791,4,4,4h6.617   C19.92,51.905,21.711,50.114,21.711,47.905z"/><path d="M88.905,43.905h-6.617c-2.209,0-4,1.791-4,4s1.791,4,4,4h6.617c2.209,0,4-1.791,4-4S91.114,43.905,88.905,43.905z"/><path d="M24.34,27.902c0.781,0.781,1.805,1.172,2.829,1.172s2.047-0.391,2.829-1.172c1.562-1.562,1.562-4.095,0-5.656l-4.679-4.679   c-1.563-1.563-4.095-1.563-5.657,0c-1.562,1.562-1.562,4.095,0,5.656L24.34,27.902z"/><path d="M75.66,67.909c-1.563-1.563-4.095-1.563-5.657,0c-1.562,1.562-1.562,4.095,0,5.656l4.679,4.679   c0.781,0.781,1.805,1.172,2.829,1.172s2.047-0.391,2.829-1.172c1.562-1.562,1.562-4.095,0-5.656L75.66,67.909z"/><path d="M72.832,29.074c1.024,0,2.047-0.391,2.829-1.172l4.679-4.679c1.562-1.562,1.562-4.095,0-5.656   c-1.563-1.563-4.095-1.563-5.657,0l-4.679,4.679c-1.562,1.562-1.562,4.095,0,5.656C70.784,28.684,71.808,29.074,72.832,29.074z"/><path d="M24.34,67.909l-4.679,4.679c-1.562,1.562-1.562,4.095,0,5.656c0.781,0.781,1.805,1.172,2.829,1.172   s2.047-0.391,2.829-1.172l4.679-4.679c1.562-1.562,1.562-4.095,0-5.656C28.435,66.347,25.902,66.347,24.34,67.909z"/><path d="M46,9v6.617c0,2.209,1.791,4,4,4s4-1.791,4-4V9c0-2.209-1.791-4-4-4S46,6.791,46,9z"/></g><text font-family="'Helvetica Neue', Helvetica, Arial-Unicode, Arial, Sans-serif" font-weight="bold" font-size="5px" fill="#000000" y="115" x="0">Created by Maxim Kulikov</text><text font-family="'Helvetica Neue', Helvetica, Arial-Unicode, Arial, Sans-serif" font-weight="bold" font-size="5px" fill="#000000" y="120" x="0">from the Noun Project</text></svg>