<svg width="113" height="150" viewBox="0 0 113 150" fill="none" xmlns="http://www.w3.org/2000/svg">
<path d="M87.4573 72.9199C91.6948 66.8848 94.1667 59.5313 94.1667 51.5625C94.1667 30.8496 77.3049 14.0625 56.5 14.0625C35.6951 14.0625 18.8333 30.8496 18.8333 51.5625C18.8333 59.5313 21.3052 66.8848 25.5427 72.9199C26.6315 74.4727 27.9263 76.2305 29.3094 78.1055C33.1055 83.291 37.6372 89.502 41.0214 95.625C44.0818 101.191 45.6414 106.992 46.4065 112.471L32.0755 112.5C31.4281 108.984 30.3393 105.557 28.6031 102.393C25.6898 97.1191 22.0703 92.168 18.4508 87.2168C16.9206 85.1367 15.3904 83.0566 13.919 80.9473C8.12187 72.6269 4.70833 62.4902 4.70833 51.5625C4.70833 23.0859 27.8969 0 56.5 0C85.1031 0 108.292 23.0859 108.292 51.5625C108.292 62.4902 104.878 72.6269 99.0516 80.9473C97.5802 83.0566 96.05 85.1367 94.5198 87.2168C90.9003 92.1387 87.2807 97.0898 84.3674 102.393C82.6312 105.557 81.5424 108.984 80.895 112.5H66.5935C67.3586 107.021 68.9182 101.191 71.9786 95.6543C75.3628 89.5313 79.8945 83.3203 83.6906 78.1348C85.0737 76.2598 86.3391 74.502 87.4279 72.9492L87.4573 72.9199ZM56.5 37.5C48.7018 37.5 42.375 43.7988 42.375 51.5625C42.375 54.1406 40.2562 56.25 37.6667 56.25C35.0771 56.25 32.9583 54.1406 32.9583 51.5625C32.9583 38.6133 43.4932 28.125 56.5 28.125C59.0896 28.125 61.2083 30.2344 61.2083 32.8125C61.2083 35.3906 59.0896 37.5 56.5 37.5ZM56.5 150C43.4932 150 32.9583 139.512 32.9583 126.562V121.875H80.0417V126.562C80.0417 139.512 69.5068 150 56.5 150Z" fill="white"/>
</svg>
